<svg xmlns="http://www.w3.org/2000/svg" xmlns:xlink="http://www.w3.org/1999/xlink" id="Livello_2" data-name="Livello 2" viewBox="0 0 116.48 133.78"><defs><style>      .cls-1 {        fill: #1d1d1b;      }      .cls-2, .cls-3 {        fill: none;      }      .cls-3 {        stroke: #1d1d1b;        stroke-miterlimit: 10;        stroke-width: 2px;      }      .cls-4 {        clip-path: url(#clippath);      }    </style><clipPath id="clippath"><path class="cls-2" d="M1.83,33.87L58.15,1.19c.21-.12.46-.12.67,0l56.33,32.68c.2.12.33.34.33.57v65.37c0,.24-.13.46-.33.57l-56.33,32.68c-.21.12-.46.12-.67,0L1.83,100.39c-.2-.12-.33-.34-.33-.57V34.44c0-.24.13-.46.33-.57Z"></path></clipPath></defs><g id="DEF"><g class="cls-4"><path class="cls-3" d="M75.98,3.46c.09,0,.16.07.16.16l.2,31.68c0,.06-.03.11-.08.14l-6.58,4.23c-.08.05-.18.03-.23-.05-.05-.08-.03-.18.05-.23l6.5-4.18-.2-31.59c0-.09.07-.17.16-.17h0Z"></path><path class="cls-3" d="M40.18,3.46c-.09,0-.16.07-.16.16l-.2,31.68c0,.06.03.11.08.14l6.58,4.23c.08.05.18.03.23-.05.05-.08.03-.18-.05-.23l-6.5-4.18.2-31.59c0-.09-.07-.17-.16-.17h0Z"></path><path class="cls-3" d="M29.08,50.2h0l-7.69-.4c-.05,0-.1-.03-.13-.08L1.19,18.56c-.05-.08-.03-.18.05-.23.08-.05.18-.03.23.05l20.01,31.1,7.61.4c.09,0,.16.08.16.17,0,.09-.08.16-.16.16Z"></path><path class="cls-3" d="M87.89,50.2h0l7.69-.4c.05,0,.1-.03.13-.08l20.06-31.17c.05-.08.03-.18-.05-.23-.08-.05-.18-.03-.23.05l-20.01,31.1-7.61.4c-.09,0-.16.08-.16.17,0,.09.08.16.16.16Z"></path><path class="cls-3" d="M75.98,130.5c.09,0,.16-.07.16-.16l.2-31.68c0-.06-.03-.11-.08-.14l-6.58-4.23c-.08-.05-.18-.03-.23.05-.05.08-.03.18.05.23l6.5,4.18-.2,31.59c0,.09.07.17.16.17h0Z"></path><path class="cls-3" d="M40.18,130.5c-.09,0-.16-.07-.16-.16l-.2-31.68c0-.06.03-.11.08-.14l6.58-4.23c.08-.05.18-.03.23.05.05.08.03.18-.05.23l-6.5,4.18.2,31.59c0,.09-.07.17-.16.17h0Z"></path><path class="cls-3" d="M29.08,83.75h0l-7.69.4c-.05,0-.1.03-.13.08L1.19,115.4c-.05.08-.03.18.05.23.08.05.18.03.23-.05l20.01-31.1,7.61-.4c.09,0,.16-.08.16-.17,0-.09-.08-.16-.16-.16Z"></path><path class="cls-3" d="M87.23,83.75h0s7.69.4,7.69.4c.05,0,.1.03.13.08l20.06,31.17c.05.08.03.18-.05.23-.08.05-.18.03-.23-.05l-20.01-31.1-7.61-.4c-.09,0-.16-.08-.16-.17,0-.09.08-.16.16-.16Z"></path></g><path class="cls-3" d="M29.08,50.43c0-.24.13-.45.33-.57l28.5-16.45c.2-.12.45-.12.66,0l28.5,16.45c.2.12.33.33.33.57v32.91c0,.24-.13.45-.33.57l-28.5,16.45c-.2.12-.45.12-.66,0l-28.5-16.45c-.2-.12-.33-.33-.33-.57v-32.91Z"></path><path class="cls-3" d="M76.64,66.21l-18.17,8.76c-.17.08-.31.08-.48,0l-18.16-8.88M39.84,79.97v-20.55c0-.22.12-.42.3-.53l17.79-10.27c.19-.11.42-.11.61,0l17.79,10.27c.19.11.3.31.3.53v20.55"></path><path class="cls-1" d="M58.24,133.78c-.41,0-.81-.11-1.16-.31L1.16,101.18c-.71-.41-1.16-1.18-1.16-2.01V34.6c0-.82.44-1.59,1.16-2.01L57.08.3c.7-.41,1.61-.41,2.32,0l55.92,32.29c.71.41,1.16,1.18,1.16,2.01v64.58c0,.83-.44,1.59-1.16,2.01l-55.92,32.29c-.35.2-.75.31-1.16.31ZM58.24,1.99c-.06,0-.11.01-.16.04L2.16,34.32c-.1.06-.16.16-.16.27v64.58c0,.11.06.22.16.27l55.92,32.29c.1.06.22.06.32,0l55.92-32.29c.1-.06.16-.16.16-.27V34.6c0-.11-.06-.22-.16-.27L58.4,2.04s-.1-.04-.16-.04Z"></path></g></svg>